<?xml version="1.0" encoding="UTF-8" ?>
<svg xmlns="http://www.w3.org/2000/svg" version="1.1" width="1024" height="768">
	<polygon points="25,100 200,100 200,250 25,250" stroke="rgb(10,200,100)" stroke-width="1" fill="rgb(10,200,100)" />
	<circle cx="110" cy="175" r="60" stroke="rgb(200,10,200)" stroke-width="1" fill="rgb(200,10,200)" />
	<circle cx="110" cy="175" r="58" stroke="rgb(195,12,195)" stroke-width="1" fill="rgb(195,12,195)" />
	<circle cx="110" cy="175" r="56" stroke="rgb(190,14,190)" stroke-width="1" fill="rgb(190,14,190)" />
	<circle cx="110" cy="175" r="54" stroke="rgb(185,16,185)" stroke-width="1" fill="rgb(185,16,185)" />
	<circle cx="110" cy="175" r="52" stroke="rgb(180,18,180)" stroke-width="1" fill="rgb(180,18,180)" />
	<circle cx="110" cy="175" r="50" stroke="rgb(175,20,175)" stroke-width="1" fill="rgb(175,20,175)" />
	<circle cx="110" cy="175" r="48" stroke="rgb(170,22,170)" stroke-width="1" fill="rgb(170,22,170)" />
	<circle cx="110" cy="175" r="46" stroke="rgb(165,24,165)" stroke-width="1" fill="rgb(165,24,165)" />
	<circle cx="110" cy="175" r="44" stroke="rgb(160,26,160)" stroke-width="1" fill="rgb(160,26,160)" />
	<circle cx="110" cy="175" r="42" stroke="rgb(155,28,155)" stroke-width="1" fill="rgb(155,28,155)" />
	<circle cx="110" cy="175" r="40" stroke="rgb(150,30,150)" stroke-width="1" fill="rgb(150,30,150)" />
	<circle cx="110" cy="175" r="38" stroke="rgb(145,32,145)" stroke-width="1" fill="rgb(145,32,145)" />
	<circle cx="110" cy="175" r="36" stroke="rgb(140,34,140)" stroke-width="1" fill="rgb(140,34,140)" />
	<circle cx="110" cy="175" r="34" stroke="rgb(135,36,135)" stroke-width="1" fill="rgb(135,36,135)" />
	<circle cx="110" cy="175" r="32" stroke="rgb(130,38,130)" stroke-width="1" fill="rgb(130,38,130)" />
	<circle cx="110" cy="175" r="30" stroke="rgb(125,40,125)" stroke-width="1" fill="rgb(125,40,125)" />
	<circle cx="110" cy="175" r="28" stroke="rgb(120,42,120)" stroke-width="1" fill="rgb(120,42,120)" />
	<circle cx="110" cy="175" r="26" stroke="rgb(115,44,115)" stroke-width="1" fill="rgb(115,44,115)" />
	<circle cx="110" cy="175" r="24" stroke="rgb(110,46,110)" stroke-width="1" fill="rgb(110,46,110)" />
	<circle cx="110" cy="175" r="22" stroke="rgb(105,48,105)" stroke-width="1" fill="rgb(105,48,105)" />
	<circle cx="110" cy="175" r="20" stroke="rgb(100,50,100)" stroke-width="1" fill="rgb(100,50,100)" />
	<circle cx="110" cy="175" r="18" stroke="rgb(95,52,95)" stroke-width="1" fill="rgb(95,52,95)" />
	<circle cx="110" cy="175" r="16" stroke="rgb(90,54,90)" stroke-width="1" fill="rgb(90,54,90)" />
	<circle cx="110" cy="175" r="14" stroke="rgb(85,56,85)" stroke-width="1" fill="rgb(85,56,85)" />
	<circle cx="110" cy="175" r="12" stroke="rgb(80,58,80)" stroke-width="1" fill="rgb(80,58,80)" />
	<circle cx="110" cy="175" r="10" stroke="rgb(75,60,75)" stroke-width="1" fill="rgb(75,60,75)" />
	<circle cx="110" cy="175" r="8" stroke="rgb(70,62,70)" stroke-width="1" fill="rgb(70,62,70)" />
	<circle cx="110" cy="175" r="6" stroke="rgb(65,64,65)" stroke-width="1" fill="rgb(65,64,65)" />
	<circle cx="110" cy="175" r="4" stroke="rgb(60,66,60)" stroke-width="1" fill="rgb(60,66,60)" />
	<circle cx="110" cy="175" r="2" stroke="rgb(55,68,55)" stroke-width="1" fill="rgb(55,68,55)" />
	<polygon points="225,100 400,100 400,250 225,250" stroke="rgb(10,200,100)" stroke-width="1" fill="rgb(10,200,100)" />
	<circle cx="310" cy="175" r="60" stroke="rgb(200,10,200)" stroke-width="1" fill="rgb(200,10,200)" />
	<circle cx="310" cy="175" r="58" stroke="rgb(195,12,195)" stroke-width="1" fill="rgb(195,12,195)" />
	<circle cx="310" cy="175" r="56" stroke="rgb(190,14,190)" stroke-width="1" fill="rgb(190,14,190)" />
	<circle cx="310" cy="175" r="54" stroke="rgb(185,16,185)" stroke-width="1" fill="rgb(185,16,185)" />
	<circle cx="310" cy="175" r="52" stroke="rgb(180,18,180)" stroke-width="1" fill="rgb(180,18,180)" />
	<circle cx="310" cy="175" r="50" stroke="rgb(175,20,175)" stroke-width="1" fill="rgb(175,20,175)" />
	<circle cx="310" cy="175" r="48" stroke="rgb(170,22,170)" stroke-width="1" fill="rgb(170,22,170)" />
	<circle cx="310" cy="175" r="46" stroke="rgb(165,24,165)" stroke-width="1" fill="rgb(165,24,165)" />
	<circle cx="310" cy="175" r="44" stroke="rgb(160,26,160)" stroke-width="1" fill="rgb(160,26,160)" />
	<circle cx="310" cy="175" r="42" stroke="rgb(155,28,155)" stroke-width="1" fill="rgb(155,28,155)" />
	<circle cx="310" cy="175" r="40" stroke="rgb(150,30,150)" stroke-width="1" fill="rgb(150,30,150)" />
	<circle cx="310" cy="175" r="38" stroke="rgb(145,32,145)" stroke-width="1" fill="rgb(145,32,145)" />
	<circle cx="310" cy="175" r="36" stroke="rgb(140,34,140)" stroke-width="1" fill="rgb(140,34,140)" />
	<circle cx="310" cy="175" r="34" stroke="rgb(135,36,135)" stroke-width="1" fill="rgb(135,36,135)" />
	<circle cx="310" cy="175" r="32" stroke="rgb(130,38,130)" stroke-width="1" fill="rgb(130,38,130)" />
	<circle cx="310" cy="175" r="30" stroke="rgb(125,40,125)" stroke-width="1" fill="rgb(125,40,125)" />
	<circle cx="310" cy="175" r="28" stroke="rgb(120,42,120)" stroke-width="1" fill="rgb(120,42,120)" />
	<circle cx="310" cy="175" r="26" stroke="rgb(115,44,115)" stroke-width="1" fill="rgb(115,44,115)" />
	<circle cx="310" cy="175" r="24" stroke="rgb(110,46,110)" stroke-width="1" fill="rgb(110,46,110)" />
	<circle cx="310" cy="175" r="22" stroke="rgb(105,48,105)" stroke-width="1" fill="rgb(105,48,105)" />
	<circle cx="310" cy="175" r="20" stroke="rgb(100,50,100)" stroke-width="1" fill="rgb(100,50,100)" />
	<circle cx="310" cy="175" r="18" stroke="rgb(95,52,95)" stroke-width="1" fill="rgb(95,52,95)" />
	<circle cx="310" cy="175" r="16" stroke="rgb(90,54,90)" stroke-width="1" fill="rgb(90,54,90)" />
	<circle cx="310" cy="175" r="14" stroke="rgb(85,56,85)" stroke-width="1" fill="rgb(85,56,85)" />
	<circle cx="310" cy="175" r="12" stroke="rgb(80,58,80)" stroke-width="1" fill="rgb(80,58,80)" />
	<circle cx="310" cy="175" r="10" stroke="rgb(75,60,75)" stroke-width="1" fill="rgb(75,60,75)" />
	<circle cx="310" cy="175" r="8" stroke="rgb(70,62,70)" stroke-width="1" fill="rgb(70,62,70)" />
	<circle cx="310" cy="175" r="6" stroke="rgb(65,64,65)" stroke-width="1" fill="rgb(65,64,65)" />
	<circle cx="310" cy="175" r="4" stroke="rgb(60,66,60)" stroke-width="1" fill="rgb(60,66,60)" />
	<circle cx="310" cy="175" r="2" stroke="rgb(55,68,55)" stroke-width="1" fill="rgb(55,68,55)" />
	<polygon points="425,100 600,100 600,250 425,250" stroke="rgb(10,200,100)" stroke-width="1" fill="rgb(10,200,100)" />
	<circle cx="510" cy="175" r="60" stroke="rgb(200,10,200)" stroke-width="1" fill="rgb(200,10,200)" />
	<circle cx="510" cy="175" r="58" stroke="rgb(195,12,195)" stroke-width="1" fill="rgb(195,12,195)" />
	<circle cx="510" cy="175" r="56" stroke="rgb(190,14,190)" stroke-width="1" fill="rgb(190,14,190)" />
	<circle cx="510" cy="175" r="54" stroke="rgb(185,16,185)" stroke-width="1" fill="rgb(185,16,185)" />
	<circle cx="510" cy="175" r="52" stroke="rgb(180,18,180)" stroke-width="1" fill="rgb(180,18,180)" />
	<circle cx="510" cy="175" r="50" stroke="rgb(175,20,175)" stroke-width="1" fill="rgb(175,20,175)" />
	<circle cx="510" cy="175" r="48" stroke="rgb(170,22,170)" stroke-width="1" fill="rgb(170,22,170)" />
	<circle cx="510" cy="175" r="46" stroke="rgb(165,24,165)" stroke-width="1" fill="rgb(165,24,165)" />
	<circle cx="510" cy="175" r="44" stroke="rgb(160,26,160)" stroke-width="1" fill="rgb(160,26,160)" />
	<circle cx="510" cy="175" r="42" stroke="rgb(155,28,155)" stroke-width="1" fill="rgb(155,28,155)" />
	<circle cx="510" cy="175" r="40" stroke="rgb(150,30,150)" stroke-width="1" fill="rgb(150,30,150)" />
	<circle cx="510" cy="175" r="38" stroke="rgb(145,32,145)" stroke-width="1" fill="rgb(145,32,145)" />
	<circle cx="510" cy="175" r="36" stroke="rgb(140,34,140)" stroke-width="1" fill="rgb(140,34,140)" />
	<circle cx="510" cy="175" r="34" stroke="rgb(135,36,135)" stroke-width="1" fill="rgb(135,36,135)" />
	<circle cx="510" cy="175" r="32" stroke="rgb(130,38,130)" stroke-width="1" fill="rgb(130,38,130)" />
	<circle cx="510" cy="175" r="30" stroke="rgb(125,40,125)" stroke-width="1" fill="rgb(125,40,125)" />
	<circle cx="510" cy="175" r="28" stroke="rgb(120,42,120)" stroke-width="1" fill="rgb(120,42,120)" />
	<circle cx="510" cy="175" r="26" stroke="rgb(115,44,115)" stroke-width="1" fill="rgb(115,44,115)" />
	<circle cx="510" cy="175" r="24" stroke="rgb(110,46,110)" stroke-width="1" fill="rgb(110,46,110)" />
	<circle cx="510" cy="175" r="22" stroke="rgb(105,48,105)" stroke-width="1" fill="rgb(105,48,105)" />
	<circle cx="510" cy="175" r="20" stroke="rgb(100,50,100)" stroke-width="1" fill="rgb(100,50,100)" />
	<circle cx="510" cy="175" r="18" stroke="rgb(95,52,95)" stroke-width="1" fill="rgb(95,52,95)" />
	<circle cx="510" cy="175" r="16" stroke="rgb(90,54,90)" stroke-width="1" fill="rgb(90,54,90)" />
	<circle cx="510" cy="175" r="14" stroke="rgb(85,56,85)" stroke-width="1" fill="rgb(85,56,85)" />
	<circle cx="510" cy="175" r="12" stroke="rgb(80,58,80)" stroke-width="1" fill="rgb(80,58,80)" />
	<circle cx="510" cy="175" r="10" stroke="rgb(75,60,75)" stroke-width="1" fill="rgb(75,60,75)" />
	<circle cx="510" cy="175" r="8" stroke="rgb(70,62,70)" stroke-width="1" fill="rgb(70,62,70)" />
	<circle cx="510" cy="175" r="6" stroke="rgb(65,64,65)" stroke-width="1" fill="rgb(65,64,65)" />
	<circle cx="510" cy="175" r="4" stroke="rgb(60,66,60)" stroke-width="1" fill="rgb(60,66,60)" />
	<circle cx="510" cy="175" r="2" stroke="rgb(55,68,55)" stroke-width="1" fill="rgb(55,68,55)" />
	<polygon points="625,100 800,100 800,250 625,250" stroke="rgb(10,200,100)" stroke-width="1" fill="rgb(10,200,100)" />
	<circle cx="710" cy="175" r="60" stroke="rgb(200,10,200)" stroke-width="1" fill="rgb(200,10,200)" />
	<circle cx="710" cy="175" r="58" stroke="rgb(195,12,195)" stroke-width="1" fill="rgb(195,12,195)" />
	<circle cx="710" cy="175" r="56" stroke="rgb(190,14,190)" stroke-width="1" fill="rgb(190,14,190)" />
	<circle cx="710" cy="175" r="54" stroke="rgb(185,16,185)" stroke-width="1" fill="rgb(185,16,185)" />
	<circle cx="710" cy="175" r="52" stroke="rgb(180,18,180)" stroke-width="1" fill="rgb(180,18,180)" />
	<circle cx="710" cy="175" r="50" stroke="rgb(175,20,175)" stroke-width="1" fill="rgb(175,20,175)" />
	<circle cx="710" cy="175" r="48" stroke="rgb(170,22,170)" stroke-width="1" fill="rgb(170,22,170)" />
	<circle cx="710" cy="175" r="46" stroke="rgb(165,24,165)" stroke-width="1" fill="rgb(165,24,165)" />
	<circle cx="710" cy="175" r="44" stroke="rgb(160,26,160)" stroke-width="1" fill="rgb(160,26,160)" />
	<circle cx="710" cy="175" r="42" stroke="rgb(155,28,155)" stroke-width="1" fill="rgb(155,28,155)" />
	<circle cx="710" cy="175" r="40" stroke="rgb(150,30,150)" stroke-width="1" fill="rgb(150,30,150)" />
	<circle cx="710" cy="175" r="38" stroke="rgb(145,32,145)" stroke-width="1" fill="rgb(145,32,145)" />
	<circle cx="710" cy="175" r="36" stroke="rgb(140,34,140)" stroke-width="1" fill="rgb(140,34,140)" />
	<circle cx="710" cy="175" r="34" stroke="rgb(135,36,135)" stroke-width="1" fill="rgb(135,36,135)" />
	<circle cx="710" cy="175" r="32" stroke="rgb(130,38,130)" stroke-width="1" fill="rgb(130,38,130)" />
	<circle cx="710" cy="175" r="30" stroke="rgb(125,40,125)" stroke-width="1" fill="rgb(125,40,125)" />
	<circle cx="710" cy="175" r="28" stroke="rgb(120,42,120)" stroke-width="1" fill="rgb(120,42,120)" />
	<circle cx="710" cy="175" r="26" stroke="rgb(115,44,115)" stroke-width="1" fill="rgb(115,44,115)" />
	<circle cx="710" cy="175" r="24" stroke="rgb(110,46,110)" stroke-width="1" fill="rgb(110,46,110)" />
	<circle cx="710" cy="175" r="22" stroke="rgb(105,48,105)" stroke-width="1" fill="rgb(105,48,105)" />
	<circle cx="710" cy="175" r="20" stroke="rgb(100,50,100)" stroke-width="1" fill="rgb(100,50,100)" />
	<circle cx="710" cy="175" r="18" stroke="rgb(95,52,95)" stroke-width="1" fill="rgb(95,52,95)" />
	<circle cx="710" cy="175" r="16" stroke="rgb(90,54,90)" stroke-width="1" fill="rgb(90,54,90)" />
	<circle cx="710" cy="175" r="14" stroke="rgb(85,56,85)" stroke-width="1" fill="rgb(85,56,85)" />
	<circle cx="710" cy="175" r="12" stroke="rgb(80,58,80)" stroke-width="1" fill="rgb(80,58,80)" />
	<circle cx="710" cy="175" r="10" stroke="rgb(75,60,75)" stroke-width="1" fill="rgb(75,60,75)" />
	<circle cx="710" cy="175" r="8" stroke="rgb(70,62,70)" stroke-width="1" fill="rgb(70,62,70)" />
	<circle cx="710" cy="175" r="6" stroke="rgb(65,64,65)" stroke-width="1" fill="rgb(65,64,65)" />
	<circle cx="710" cy="175" r="4" stroke="rgb(60,66,60)" stroke-width="1" fill="rgb(60,66,60)" />
	<circle cx="710" cy="175" r="2" stroke="rgb(55,68,55)" stroke-width="1" fill="rgb(55,68,55)" />
	<polygon points="825,100 1000,100 1000,250 825,250" stroke="rgb(10,200,100)" stroke-width="1" fill="rgb(10,200,100)" />
	<circle cx="910" cy="175" r="60" stroke="rgb(200,10,200)" stroke-width="1" fill="rgb(200,10,200)" />
	<circle cx="910" cy="175" r="58" stroke="rgb(195,12,195)" stroke-width="1" fill="rgb(195,12,195)" />
	<circle cx="910" cy="175" r="56" stroke="rgb(190,14,190)" stroke-width="1" fill="rgb(190,14,190)" />
	<circle cx="910" cy="175" r="54" stroke="rgb(185,16,185)" stroke-width="1" fill="rgb(185,16,185)" />
	<circle cx="910" cy="175" r="52" stroke="rgb(180,18,180)" stroke-width="1" fill="rgb(180,18,180)" />
	<circle cx="910" cy="175" r="50" stroke="rgb(175,20,175)" stroke-width="1" fill="rgb(175,20,175)" />
	<circle cx="910" cy="175" r="48" stroke="rgb(170,22,170)" stroke-width="1" fill="rgb(170,22,170)" />
	<circle cx="910" cy="175" r="46" stroke="rgb(165,24,165)" stroke-width="1" fill="rgb(165,24,165)" />
	<circle cx="910" cy="175" r="44" stroke="rgb(160,26,160)" stroke-width="1" fill="rgb(160,26,160)" />
	<circle cx="910" cy="175" r="42" stroke="rgb(155,28,155)" stroke-width="1" fill="rgb(155,28,155)" />
	<circle cx="910" cy="175" r="40" stroke="rgb(150,30,150)" stroke-width="1" fill="rgb(150,30,150)" />
	<circle cx="910" cy="175" r="38" stroke="rgb(145,32,145)" stroke-width="1" fill="rgb(145,32,145)" />
	<circle cx="910" cy="175" r="36" stroke="rgb(140,34,140)" stroke-width="1" fill="rgb(140,34,140)" />
	<circle cx="910" cy="175" r="34" stroke="rgb(135,36,135)" stroke-width="1" fill="rgb(135,36,135)" />
	<circle cx="910" cy="175" r="32" stroke="rgb(130,38,130)" stroke-width="1" fill="rgb(130,38,130)" />
	<circle cx="910" cy="175" r="30" stroke="rgb(125,40,125)" stroke-width="1" fill="rgb(125,40,125)" />
	<circle cx="910" cy="175" r="28" stroke="rgb(120,42,120)" stroke-width="1" fill="rgb(120,42,120)" />
	<circle cx="910" cy="175" r="26" stroke="rgb(115,44,115)" stroke-width="1" fill="rgb(115,44,115)" />
	<circle cx="910" cy="175" r="24" stroke="rgb(110,46,110)" stroke-width="1" fill="rgb(110,46,110)" />
	<circle cx="910" cy="175" r="22" stroke="rgb(105,48,105)" stroke-width="1" fill="rgb(105,48,105)" />
	<circle cx="910" cy="175" r="20" stroke="rgb(100,50,100)" stroke-width="1" fill="rgb(100,50,100)" />
	<circle cx="910" cy="175" r="18" stroke="rgb(95,52,95)" stroke-width="1" fill="rgb(95,52,95)" />
	<circle cx="910" cy="175" r="16" stroke="rgb(90,54,90)" stroke-width="1" fill="rgb(90,54,90)" />
	<circle cx="910" cy="175" r="14" stroke="rgb(85,56,85)" stroke-width="1" fill="rgb(85,56,85)" />
	<circle cx="910" cy="175" r="12" stroke="rgb(80,58,80)" stroke-width="1" fill="rgb(80,58,80)" />
	<circle cx="910" cy="175" r="10" stroke="rgb(75,60,75)" stroke-width="1" fill="rgb(75,60,75)" />
	<circle cx="910" cy="175" r="8" stroke="rgb(70,62,70)" stroke-width="1" fill="rgb(70,62,70)" />
	<circle cx="910" cy="175" r="6" stroke="rgb(65,64,65)" stroke-width="1" fill="rgb(65,64,65)" />
	<circle cx="910" cy="175" r="4" stroke="rgb(60,66,60)" stroke-width="1" fill="rgb(60,66,60)" />
	<circle cx="910" cy="175" r="2" stroke="rgb(55,68,55)" stroke-width="1" fill="rgb(55,68,55)" />
</svg>