<?xml version="1.0" encoding="UTF-8" ?>
<svg xmlns="http://www.w3.org/2000/svg" version="1.1" width="1024" height="768">
	<polygon points="25,100 200,100 200,250 25,250" stroke="rgb(100,20,50)" stroke-width="1" fill="rgb(100,20,50)" />
	<ellipse cx="110" cy="300" rx="90" ry="30" stroke="rgb(100,20,50)" stroke-width="1" fill="rgb(100,20,50)" />
	<ellipse cx="110" cy="400" rx="90" ry="30" stroke="rgb(100,20,50)" stroke-width="1" fill="rgb(100,20,50)" />
	<ellipse cx="110" cy="500" rx="90" ry="30" stroke="rgb(100,20,50)" stroke-width="1" fill="rgb(100,20,50)" />
	<polygon points="225,100 400,100 400,250 225,250" stroke="rgb(110,60,70)" stroke-width="1" fill="rgb(110,60,70)" />
	<ellipse cx="310" cy="300" rx="90" ry="30" stroke="rgb(110,60,70)" stroke-width="1" fill="rgb(110,60,70)" />
	<ellipse cx="310" cy="400" rx="90" ry="30" stroke="rgb(110,60,70)" stroke-width="1" fill="rgb(110,60,70)" />
	<ellipse cx="310" cy="500" rx="90" ry="30" stroke="rgb(110,60,70)" stroke-width="1" fill="rgb(110,60,70)" />
	<polygon points="425,100 600,100 600,250 425,250" stroke="rgb(120,100,90)" stroke-width="1" fill="rgb(120,100,90)" />
	<ellipse cx="510" cy="300" rx="90" ry="30" stroke="rgb(120,100,90)" stroke-width="1" fill="rgb(120,100,90)" />
	<ellipse cx="510" cy="400" rx="90" ry="30" stroke="rgb(120,100,90)" stroke-width="1" fill="rgb(120,100,90)" />
	<ellipse cx="510" cy="500" rx="90" ry="30" stroke="rgb(120,100,90)" stroke-width="1" fill="rgb(120,100,90)" />
	<polygon points="625,100 800,100 800,250 625,250" stroke="rgb(130,140,110)" stroke-width="1" fill="rgb(130,140,110)" />
	<ellipse cx="710" cy="300" rx="90" ry="30" stroke="rgb(130,140,110)" stroke-width="1" fill="rgb(130,140,110)" />
	<ellipse cx="710" cy="400" rx="90" ry="30" stroke="rgb(130,140,110)" stroke-width="1" fill="rgb(130,140,110)" />
	<ellipse cx="710" cy="500" rx="90" ry="30" stroke="rgb(130,140,110)" stroke-width="1" fill="rgb(130,140,110)" />
	<polygon points="825,100 1000,100 1000,250 825,250" stroke="rgb(140,180,130)" stroke-width="1" fill="rgb(140,180,130)" />
	<ellipse cx="910" cy="300" rx="90" ry="30" stroke="rgb(140,180,130)" stroke-width="1" fill="rgb(140,180,130)" />
	<ellipse cx="910" cy="400" rx="90" ry="30" stroke="rgb(140,180,130)" stroke-width="1" fill="rgb(140,180,130)" />
	<ellipse cx="910" cy="500" rx="90" ry="30" stroke="rgb(140,180,130)" stroke-width="1" fill="rgb(140,180,130)" />
</svg>